<svg id="icons" xmlns="http://www.w3.org/2000/svg" viewBox="0 0 48 48"><title>pencil-ruler</title><g id="pencil-ruler"><g id="fill"><polyline points="31.4 5.32 2 34.72 13.29 46 42.68 16.61" fill="#747474"/><path d="M2,11.93,11.93,2,46,36.07,36.07,46Zm9.61,0a2.18,2.18,0,1,0-2.17,2.17A2.17,2.17,0,0,0,11.61,11.88Z" fill="#fff"/><polygon points="40.13 3.33 31.4 5.32 42.68 16.61 44.67 7.87 40.13 3.33" fill="#fff"/><path d="M40.13,3.33a6,6,0,0,0,4.54,4.54L46,2Z" fill="#747474"/></g><g id="outline"><path d="M36.07,47a1,1,0,0,1-.71-.29L1.29,12.64A1,1,0,0,1,1,11.93a1.05,1.05,0,0,1,.29-.71l9.93-9.93a1,1,0,0,1,1.42,0L46.71,35.36a1,1,0,0,1,0,1.42l-9.93,9.93A1,1,0,0,1,36.07,47ZM3.42,11.93,36.07,44.58l8.51-8.51L11.93,3.42Zm6,3.12a3.17,3.17,0,1,1,3.17-3.17A3.18,3.18,0,0,1,9.44,15.05Zm0-4.34a1.17,1.17,0,1,0,1.17,1.17A1.17,1.17,0,0,0,9.44,10.71Z" fill="#252b33"/><path d="M22.19,12.13a.81.81,0,0,0-1.15,0l-1.29,1.3a.81.81,0,0,0,0,1.15.81.81,0,0,0,1.15,0l1.29-1.3A.81.81,0,0,0,22.19,12.13Z" fill="#252b33"/><path d="M15.43,5.36a.82.82,0,0,0-1.16,0L13,6.66a.81.81,0,0,0,0,1.15.82.82,0,0,0,.58.24.8.8,0,0,0,.57-.24l1.3-1.3A.81.81,0,0,0,15.43,5.36Z" fill="#252b33"/><path d="M29,18.9a.81.81,0,0,0-1.15,0l-1.29,1.29a.82.82,0,0,0,0,1.16.78.78,0,0,0,.57.23.81.81,0,0,0,.58-.23L29,20.05A.81.81,0,0,0,29,18.9Z" fill="#252b33"/><path d="M35.73,25.67a.81.81,0,0,0-1.15,0L33.29,27a.82.82,0,0,0,0,1.16.83.83,0,0,0,1.15,0l1.29-1.3A.81.81,0,0,0,35.73,25.67Z" fill="#252b33"/><path d="M24.43,15.52l-2.07,2.06a.81.81,0,0,0,0,1.15.82.82,0,0,0,.58.24.8.8,0,0,0,.57-.24l2.07-2.06a.81.81,0,1,0-1.15-1.15Z" fill="#252b33"/><path d="M17.66,8.75l-2.07,2.06a.81.81,0,0,0,0,1.15.82.82,0,0,0,1.16,0L18.81,9.9a.81.81,0,1,0-1.15-1.15Z" fill="#252b33"/><path d="M31.19,22.29l-2.06,2.06a.81.81,0,0,0,0,1.15.82.82,0,0,0,.58.24.8.8,0,0,0,.57-.24l2.07-2.06a.81.81,0,0,0,0-1.15A.82.82,0,0,0,31.19,22.29Z" fill="#252b33"/><path d="M38,29.06,35.9,31.12a.82.82,0,0,0,.57,1.39.82.82,0,0,0,.58-.24l2.07-2.06a.81.81,0,0,0,0-1.15A.82.82,0,0,0,38,29.06Z" fill="#252b33"/><path d="M42.5,32.44a.81.81,0,0,0-1.15,0l-1.3,1.29a.82.82,0,0,0,.58,1.39.82.82,0,0,0,.58-.24l1.29-1.29A.81.81,0,0,0,42.5,32.44Z" fill="#252b33"/><path d="M34.61,25.68A1,1,0,0,1,33.9,24L42,15.9a1,1,0,0,1,1.42,0,1,1,0,0,1,0,1.41l-8.08,8.07A1,1,0,0,1,34.61,25.68Z" fill="#252b33"/><path d="M13.29,47a1,1,0,0,1-.71-.29L1.29,35.42a1,1,0,0,1,0-1.41l11.4-11.39A1,1,0,0,1,14.1,24L3.42,34.72l9.87,9.87L24,33.9a1,1,0,0,1,1.41,0,1,1,0,0,1,0,1.41L14,46.71A1,1,0,0,1,13.29,47Z" fill="#252b33"/><path d="M23.36,14.36a1,1,0,0,1-.71-.3,1,1,0,0,1,0-1.41l8-8a1,1,0,0,1,1.41,0A1,1,0,0,1,32.1,6l-8,8A1,1,0,0,1,23.36,14.36Z" fill="#252b33"/><path d="M42.68,17.6a1,1,0,0,1-.71-.29L30.69,6a1,1,0,0,1,.48-1.68l8.74-2a1,1,0,0,1,1.2.75,1,1,0,0,1-.76,1.2l-7,1.58,8.73,8.73,1.58-7a1,1,0,1,1,2,.44l-2,8.74a1,1,0,0,1-.7.74A1.33,1.33,0,0,1,42.68,17.6Z" fill="#252b33"/><path d="M44.67,8.87a.78.78,0,0,1-.22,0A7,7,0,0,1,41,7a7,7,0,0,1-1.87-3.41,1,1,0,0,1,.75-1.2L45.78,1a1,1,0,0,1,.93.27,1,1,0,0,1,.26.93L45.64,8.09A1,1,0,0,1,44.67,8.87Zm-3.25-4.8a5.11,5.11,0,0,0,2.51,2.51l.74-3.25Z" fill="#252b33"/></g></g></svg>